<svg xmlns="http://www.w3.org/2000/svg" version="1.1" xmlns:xlink="http://www.w3.org/1999/xlink" xmlns:svgjs="http://svgjs.dev/svgjs" width="1000" height="1000" viewBox="0 0 1000 1000"><rect width="1000" height="1000" fill="#ffffff"></rect><g transform="matrix(0.7,0,0,0.7,149.57575757575756,408.71830538030986)"><svg viewBox="0 0 396 104" data-background-color="#ffffff" preserveAspectRatio="xMidYMid meet" height="262" width="1000" xmlns="http://www.w3.org/2000/svg" xmlns:xlink="http://www.w3.org/1999/xlink"><g id="tight-bounds" transform="matrix(1,0,0,1,0.2400000000000091,-0.23720697683873482)"><svg viewBox="0 0 395.52 104.47441395367747" height="104.47441395367747" width="395.52"><g><svg viewBox="0 0 496.5333786105186 131.1565375676916" height="104.47441395367747" width="395.52"><g transform="matrix(1,0,0,1,101.0133786105186,40.52927383203304)"><svg viewBox="0 0 395.52 50.09798990362552" height="50.09798990362552" width="395.52"><g id="textblocktransform"><svg viewBox="0 0 395.52 50.09798990362552" height="50.09798990362552" width="395.52" id="textblock"><g><svg viewBox="0 0 395.52 50.09798990362552" height="50.09798990362552" width="395.52"><g transform="matrix(1,0,0,1,0,0)"><svg width="395.52" viewBox="0.20000000298023224 -33.08000183105469 265.9700012207031 33.69000244140625" height="50.09798990362552" data-palette-color="#636365"><path d="M15.87 0.02L15.82 0.1Q15.09 0 13.33 0L13.33 0 10.5 0Q9.67 0 9.13 0.05L9.13 0.05 9.11 0Q9.2-0.17 9.2-0.39 9.2-0.61 9.17-0.85 9.13-1.1 8.97-1.73 8.81-2.37 8.5-3.56L8.5-3.56 0.2-32.57Q1.76-32.47 3.98-32.47 6.2-32.47 6.86-32.67L6.86-32.67 12.62-10.57 18.24-32.57Q18.6-32.54 18.9-32.52L18.9-32.52 19.43-32.52Q20.24-32.47 21.46-32.47 22.68-32.47 23.97-32.67L23.97-32.67 29.69-10.57 34.59-32.57Q36.06-32.47 38.43-32.47 40.8-32.47 41.31-32.67L41.31-32.67 34.28-6.91Q32.93-2.47 32.86-1.64 32.79-0.81 32.79-0.49 32.79-0.17 32.89 0.02L32.89 0.02 32.84 0.1Q32.06 0 30.37 0L30.37 0Q28.91 0 27.71 0 26.51 0 25.98 0.05L25.98 0.05 25.95 0Q26.05-0.17 26.05-0.39 26.05-0.61 26.03-0.83 26-1.05 25.89-1.67 25.78-2.29 25.54-3.52L25.54-3.52 24.88-6.84 20.87-22.05 17.07-6.91Q15.89-2.25 15.84-1.54L15.84-1.54Q15.75-0.2 15.87 0.02L15.87 0.02ZM48.61-3.86Q46.38-5.98 45.1-8.96 43.82-11.94 43.82-15.49 43.82-19.04 45.02-22.22 46.21-25.39 48.44-27.81 50.66-30.22 53.81-31.65 56.96-33.08 60.86-33.08L60.86-33.08Q67.6-33.08 72.21-28.83L72.21-28.83Q77.15-24.29 77.15-16.58L77.15-16.58Q77.15-9.11 72.07-4.15L72.07-4.15Q68.94-1.1 64.62 0.05L64.62 0.05Q62.5 0.61 59.65 0.61 56.81 0.61 53.82-0.56 50.83-1.73 48.61-3.86ZM50.61-15.82L50.61-15.82Q50.61-13.55 51.36-11.65 52.12-9.74 53.46-8.37L53.46-8.37Q56.32-5.49 60.81-5.49L60.81-5.49Q65.09-5.49 67.67-8.25L67.67-8.25Q70.31-11.11 70.31-16.04L70.31-16.04Q70.31-20.68 67.8-23.78L67.8-23.78Q65.09-27.1 60.37-27.1L60.37-27.1Q55.81-27.1 53.12-23.73L53.12-23.73Q50.61-20.58 50.61-15.82ZM86.08-3.86Q83.86-5.98 82.58-8.96 81.29-11.94 81.29-15.49 81.29-19.04 82.49-22.22 83.69-25.39 85.91-27.81 88.13-30.22 91.28-31.65 94.43-33.08 98.33-33.08L98.33-33.08Q105.07-33.08 109.69-28.83L109.69-28.83Q114.62-24.29 114.62-16.58L114.62-16.58Q114.62-9.11 109.54-4.15L109.54-4.15Q106.42-1.1 102.09 0.05L102.09 0.05Q99.97 0.61 97.13 0.61 94.28 0.61 91.29-0.56 88.3-1.73 86.08-3.86ZM88.08-15.82L88.08-15.82Q88.08-13.55 88.84-11.65 89.59-9.74 90.94-8.37L90.94-8.37Q93.79-5.49 98.29-5.49L98.29-5.49Q102.56-5.49 105.15-8.25L105.15-8.25Q107.78-11.11 107.78-16.04L107.78-16.04Q107.78-20.68 105.27-23.78L105.27-23.78Q102.56-27.1 97.85-27.1L97.85-27.1Q93.28-27.1 90.6-23.73L90.6-23.73Q88.08-20.58 88.08-15.82ZM128.8 0.61L128.8 0.61Q124.85 0.61 121.35-0.02L121.35-0.02 121.35-32.69Q124.58-33.08 128.84-33.08 133.1-33.08 136.55-31.92 140.01-30.76 142.33-28.61L142.33-28.61Q147.01-24.32 147.01-16.58L147.01-16.58Q147.01-7.91 141.79-3.42L141.79-3.42Q137.1 0.61 128.8 0.61ZM127.7-27.1L127.7-5.35Q129.29-5.05 130.88-5.05 132.46-5.05 134.29-5.68 136.13-6.3 137.47-7.62L137.47-7.62Q140.35-10.4 140.35-15.72L140.35-15.72Q140.35-24.46 133.98-26.46L133.98-26.46Q131.88-27.12 129.12-27.12L129.12-27.12 128.46-27.12Q128.09-27.12 127.7-27.1L127.7-27.1ZM161.27 0L158.95 0Q155.36 0 154.19 0.15L154.19 0.15 154.19-32.62Q154.78-32.47 156.62-32.47 158.46-32.47 160.9-32.57L160.9-32.57 160.9-5.86 165.96-5.86Q168.15-5.86 169.47-6.01L169.47-6.01Q169.3-0.29 169.3-0.07L169.3-0.07 169.3 0.17Q166.91 0 161.27 0L161.27 0ZM177.72-3.86Q175.5-5.98 174.22-8.96 172.94-11.94 172.94-15.49 172.94-19.04 174.13-22.22 175.33-25.39 177.55-27.81 179.77-30.22 182.92-31.65 186.07-33.08 189.98-33.08L189.98-33.08Q196.72-33.08 201.33-28.83L201.33-28.83Q206.26-24.29 206.26-16.58L206.26-16.58Q206.26-9.11 201.18-4.15L201.18-4.15Q198.06-1.1 193.74 0.05L193.74 0.05Q191.61 0.61 188.77 0.61 185.93 0.61 182.93-0.56 179.94-1.73 177.72-3.86ZM179.72-15.82L179.72-15.82Q179.72-13.55 180.48-11.65 181.24-9.74 182.58-8.37L182.58-8.37Q185.44-5.49 189.93-5.49L189.93-5.49Q194.2-5.49 196.79-8.25L196.79-8.25Q199.43-11.11 199.43-16.04L199.43-16.04Q199.43-20.68 196.91-23.78L196.91-23.78Q194.2-27.1 189.49-27.1L189.49-27.1Q184.92-27.1 182.24-23.73L182.24-23.73Q179.72-20.58 179.72-15.82ZM227.08-33.08L227.08-33.08Q231.65-33.08 234.87-31.49L234.87-31.49 234.87-24.02 234.82-23.97Q233.46-26.07 229.06-26.76L229.06-26.76Q227.77-26.98 225.79-26.98 223.81-26.98 221.91-26.23 220-25.49 218.78-24.12L218.78-24.12Q216.42-21.46 216.42-16.53L216.42-16.53Q216.42-10.79 219.42-7.98L219.42-7.98Q221.91-5.64 226.01-5.64L226.01-5.64Q230.65-5.64 233.53-7.62L233.53-7.62Q234.58-8.33 235.31-9.38L235.31-9.38 235.39-9.33 235.39-2.49Q231.65 0.61 225.33 0.61L225.33 0.61Q217.88 0.61 213.66-4.13L213.66-4.13Q209.6-8.64 209.6-16.09L209.6-16.09Q209.6-23.97 214.05-28.52L214.05-28.52Q218.54-33.08 227.08-33.08ZM247.76-9.89L247.76 0.15Q246.08 0 243.46 0L243.46 0 241.54 0 241.54-32.57 242.51-32.52Q243.54-32.47 244.05-32.47L244.05-32.47 244.76-32.47Q246.91-32.47 247.76-32.67L247.76-32.67 247.76-18.87 257.65-32.57Q259.21-32.47 260.29-32.47L260.29-32.47 261.63-32.47Q264.14-32.47 265.22-32.67L265.22-32.67 255.79-20.36 265.07-1.95Q265.66-0.61 266.17 0L266.17 0 264.68 0Q259.53 0 258.26 0.2L258.26 0.2Q257.99-1.44 257.53-2.66L257.53-2.66 251.3-14.53 247.76-9.89Z" opacity="1" transform="matrix(1,0,0,1,0,0)" fill="#636365" class="undefined-text-0" data-fill-palette-color="primary" id="text-0"></path></svg></g></svg></g></svg></g></svg></g><g><svg viewBox="0 0 89.1864455460303 131.1565375676916" height="131.1565375676916" width="89.1864455460303"><g><svg version="1.1" xmlns="http://www.w3.org/2000/svg" xmlns:xlink="http://www.w3.org/1999/xlink" x="0" y="0" viewBox="0 0 68 100" enable-background="new 0 0 68 100" xml:space="preserve" height="131.1565375676916" width="89.1864455460303" class="icon-icon-0" data-fill-palette-color="accent" id="icon-0"><path d="M60.5 41.338V26.5C60.5 11.888 48.612 0 34 0S7.5 11.888 7.5 26.5v14.838L0 42v55l34 3 34-3V42L60.5 41.338zM15.5 40.633V26.5C15.5 16.299 23.799 8 34 8s18.5 8.299 18.5 18.5v14.133L34 39 15.5 40.633z" fill="#636365" data-fill-palette-color="accent"></path></svg></g></svg></g></svg></g><defs></defs></svg><rect width="395.52" height="104.47441395367747" fill="none" stroke="none" visibility="hidden"></rect></g></svg></g></svg>